<svg xmlns="http://www.w3.org/2000/svg" width="1.2em" height="1.2em" viewBox="0 0 80 80" fill="currentColor">
<path fill-rule="evenodd" clip-rule="evenodd" d="M36.7645 2.93934C37.3503 2.35355 38.3001 2.35355 38.8859 2.93934C47.1182 11.1717 48.1601 20.9629 47.2007 31.7182C47.1271 32.5434 46.3985 33.1526 45.5733 33.079C44.7482 33.0054 44.1389 32.2768 44.2125 31.4517C45.1411 21.0416 44.0662 12.3623 36.7645 5.06066C36.1787 4.47487 36.1787 3.52513 36.7645 2.93934Z" />
<path fill-rule="evenodd" clip-rule="evenodd" d="M74.7626 28.7765C74.9251 29.5889 74.3983 30.3791 73.5859 30.5416C68.111 31.6366 64.0824 35.1177 60.3732 39.5976C59.8449 40.2357 58.8993 40.3247 58.2612 39.7964C57.6231 39.2681 57.5341 38.3225 58.0624 37.6844C61.935 33.0071 66.5195 28.8955 72.9976 27.5999C73.8099 27.4374 74.6002 27.9642 74.7626 28.7765Z" />
<path fill-rule="evenodd" clip-rule="evenodd" d="M47.87 70.454C50.4251 71.3092 52.7503 72.9373 55.0051 74.8581C55.6357 75.3953 55.7114 76.342 55.1742 76.9727C54.637 77.6033 53.6903 77.679 53.0597 77.1418C50.9084 75.3093 48.931 73.9727 46.9178 73.2988C44.957 72.6425 42.8886 72.5899 40.471 73.469C39.6925 73.7521 38.8318 73.3504 38.5487 72.5719C38.2656 71.7933 38.6673 70.9327 39.4458 70.6496C42.497 69.5401 45.2625 69.5811 47.87 70.454Z" />
<path fill-rule="evenodd" clip-rule="evenodd" d="M20.4424 43.9114C20.4424 43.0829 21.114 42.4114 21.9424 42.4114C24.6668 42.4114 27.5319 43.4479 29.8465 45.1137C32.1599 46.7788 34.073 49.1843 34.67 52.0498C34.839 52.8608 34.3185 53.6553 33.5075 53.8242C32.6965 53.9932 31.902 53.4727 31.7331 52.6617C31.3288 50.7209 29.9773 48.9042 28.0939 47.5486C26.2117 46.1939 23.9479 45.4114 21.9424 45.4114C21.114 45.4114 20.4424 44.7398 20.4424 43.9114Z" />
<path fill-rule="evenodd" clip-rule="evenodd" d="M5.36572 60.6923C5.7362 59.9513 6.63721 59.651 7.37818 60.0215C11.8113 62.238 15.9588 63.5107 20.021 63.6148C24.0606 63.7184 28.1173 62.6692 32.3889 60.0803C33.0974 59.6509 34.0198 59.8772 34.4492 60.5857C34.8786 61.2941 34.6523 62.2165 33.9439 62.6459C29.2267 65.5048 24.6092 66.7334 19.9442 66.6138C15.3018 66.4949 10.7142 65.0436 6.03654 62.7048C5.29557 62.3343 4.99524 61.4333 5.36572 60.6923Z" />
<path fill-rule="evenodd" clip-rule="evenodd" d="M22.0424 19.6229C25.7857 17.9445 30.6672 18.7482 33.8455 22.9859C36.556 26.5998 37.5843 30.5183 38.0867 34.4066C38.3243 36.2463 38.4473 38.1092 38.5673 39.9261C38.5734 40.0192 38.5796 40.1121 38.5857 40.205C38.6704 41.4842 38.7566 42.7421 38.8814 43.9856C38.9464 43.9489 39.0131 43.9111 39.0815 43.8723L39.1304 43.8446C39.683 43.5314 40.3181 43.1714 40.8983 42.888C41.1986 42.7414 41.5133 42.6008 41.8176 42.4934C42.0984 42.3943 42.4804 42.283 42.8825 42.2773C45.3482 42.242 47.4147 43.4082 49.061 45.0666C50.695 46.7128 52.001 48.922 53.0177 51.2296C55.046 55.8328 56.0876 61.2109 56.132 64.3665C56.1437 65.1949 55.4817 65.8758 54.6533 65.8875C53.825 65.8992 53.144 65.2371 53.1323 64.4088C53.0939 61.6805 52.1489 56.698 50.2724 52.4392C49.3368 50.3158 48.2109 48.4687 46.9318 47.1801C45.6771 45.916 44.3625 45.2693 42.9659 45.2766C42.9475 45.2809 42.8994 45.293 42.8157 45.3225C42.6624 45.3766 42.4619 45.4631 42.2146 45.5838C41.7183 45.8262 41.1511 46.1477 40.5655 46.4796L40.5346 46.4971C39.9898 46.8059 39.3937 47.1438 38.9234 47.3563C38.7102 47.4527 38.3733 47.5946 38.0215 47.6422C37.8583 47.6642 37.4774 47.6991 37.0646 47.5137C36.5239 47.2708 36.2049 46.7807 36.133 46.2691C35.8553 44.2948 35.7189 42.3164 35.5923 40.4031C35.5868 40.3199 35.5813 40.2368 35.5758 40.1538C35.4541 38.3121 35.3367 36.5348 35.1114 34.791C34.6432 31.1668 33.7229 27.8224 31.4455 24.7859C29.1329 21.7023 25.7706 21.239 23.2697 22.3603C20.8027 23.4664 19.0632 26.1589 20.1097 29.8925C20.4541 31.1211 21.1582 31.6474 21.998 31.8583C22.9441 32.0959 24.1773 31.944 25.3642 31.4693C26.1334 31.1616 27.0064 31.5357 27.314 32.3049C27.6217 33.0741 27.2476 33.947 26.4784 34.2547C24.9159 34.8797 23.0147 35.2068 21.2672 34.7679C19.4132 34.3022 17.8641 32.9963 17.2211 30.7022C15.7602 25.4904 18.2652 21.3164 22.0424 19.6229Z" />
</svg>