<svg width="106" height="70" viewBox="0 0 106 70" fill="currentColor" xmlns="http://www.w3.org/2000/svg">
<path d="M71.416 0.309637C68.8785 -0.121328 66.5216 0.0266362 64.3563 0.838652C62.1909 1.65067 60.3178 3.08894 58.6895 5.08207C57.1424 6.97572 56.1322 8.96037 55.7284 11.1138C55.3246 13.2673 55.5472 15.4831 56.3032 17.8086C56.5594 18.5964 57.4057 19.0274 58.1935 18.7713C58.9814 18.5152 59.4124 17.6689 59.1563 16.8811C58.5225 14.9315 58.3837 13.231 58.677 11.6667C58.9703 10.1023 59.7157 8.56766 61.0127 6.98013C62.3698 5.31904 63.8275 4.24092 65.4096 3.64764C66.9917 3.05436 68.7989 2.90811 70.9136 3.26728C71.7303 3.406 72.5049 2.85636 72.6436 2.03963C72.7823 1.2229 72.2327 0.448355 71.416 0.309637Z" />
<path d="M31.9065 5.67561C32.4923 5.08982 33.442 5.08982 34.0278 5.67561C42.2602 13.908 43.302 23.6992 42.3426 34.4545C42.269 35.2797 41.5404 35.8889 40.7153 35.8153C39.8901 35.7417 39.2809 35.0131 39.3545 34.188C40.2831 23.7779 39.2081 15.0986 31.9065 7.79693C31.3207 7.21114 31.3207 6.2614 31.9065 5.67561Z" />
<path d="M69.9045 31.5128C70.067 32.3251 69.5402 33.1154 68.7278 33.2778C63.2529 34.3728 59.2242 37.8539 55.5151 42.3338C54.9868 42.9719 54.0412 43.0609 53.4031 42.5326C52.765 42.0043 52.676 41.0587 53.2043 40.4206C57.0769 35.7433 61.6614 31.6317 68.1395 30.3361C68.9518 30.1736 69.7421 30.7004 69.9045 31.5128Z" />
<path d="M17.0843 45.1476C16.2559 45.1476 15.5843 45.8192 15.5843 46.6476C15.5843 47.4761 16.2559 48.1476 17.0843 48.1476C19.0899 48.1476 21.3537 48.9302 23.2359 50.2849C25.1192 51.6404 26.4707 53.4572 26.875 55.398C27.044 56.209 27.8384 56.7295 28.6494 56.5605C29.4604 56.3915 29.9809 55.5971 29.812 54.7861C29.215 51.9205 27.3018 49.5151 24.9884 47.85C22.6738 46.1841 19.8087 45.1476 17.0843 45.1476Z" />
<path d="M2.51978 62.7578C1.77881 62.3873 0.877804 62.6876 0.507321 63.4286C0.136837 64.1696 0.437172 65.0706 1.17814 65.4411C5.85585 67.7799 10.4434 69.2312 15.0858 69.3502C19.7508 69.4697 24.3683 68.2411 29.0855 65.3822C29.7939 64.9529 30.0202 64.0304 29.5908 63.322C29.1614 62.6135 28.239 62.3873 27.5306 62.8166C23.2589 65.4055 19.2022 66.4547 15.1626 66.3511C11.1004 66.247 6.95292 64.9744 2.51978 62.7578Z" />
<path d="M28.987 25.7222C25.8087 21.4844 20.9271 20.6808 17.1838 22.3591C13.4067 24.0527 10.9017 28.2267 12.3625 33.4385C13.0056 35.7325 14.5546 37.0385 16.4086 37.5042C18.1562 37.9431 20.0573 37.616 21.6199 36.9909C22.389 36.6833 22.7632 35.8103 22.4555 35.0411C22.1478 34.272 21.2749 33.8978 20.5057 34.2055C19.3187 34.6803 18.0856 34.8322 17.1395 34.5945C16.2997 34.3836 15.5956 33.8574 15.2512 32.6288C14.2047 28.8951 15.9442 26.2027 18.4112 25.0966C20.9121 23.9752 24.2743 24.4386 26.587 27.5222C28.8643 30.5586 29.7846 33.9031 30.2529 37.5273C30.4781 39.2711 30.5956 41.0484 30.7173 42.89L30.7337 43.1394C30.8604 45.0526 30.9968 47.0311 31.2744 49.0054C31.3464 49.517 31.6654 50.0071 32.2061 50.25C32.6188 50.4354 32.9998 50.4005 33.163 50.3784C33.5147 50.3309 33.8516 50.1889 34.0649 50.0926C34.5351 49.8801 35.1311 49.5423 35.6758 49.2335L35.707 49.2159C36.2925 48.884 36.8599 48.5624 37.3561 48.3201C37.6034 48.1993 37.8039 48.1128 37.9572 48.0588C38.0408 48.0292 38.0889 48.0172 38.1074 48.0128C39.504 48.0055 40.8186 48.6523 42.0733 49.9163C43.3524 51.2049 44.4783 53.052 45.4139 55.1755C47.2903 59.4342 48.2354 64.4168 48.2738 67.145C48.2855 67.9734 48.9664 68.6354 49.7948 68.6237C50.6231 68.6121 51.2852 67.9311 51.2735 67.1028C51.2291 63.9472 50.1874 58.5691 48.1592 53.9658C47.1425 51.6583 45.8365 49.449 44.2024 47.8029C42.5562 46.1444 40.4897 44.9783 38.0239 45.0135C37.6218 45.0193 37.2399 45.1306 36.9591 45.2297C36.6548 45.337 36.3401 45.4777 36.0398 45.6243C35.4596 45.9076 34.8247 46.2675 34.2722 46.5807L34.0229 46.7219C33.898 45.4783 33.8119 44.2205 33.7272 42.9412L33.7088 42.6623C33.5888 40.8455 33.4658 38.9825 33.2281 37.1429C32.7258 33.2546 31.6974 29.3361 28.987 25.7222Z" />
<path fill-rule="evenodd" clip-rule="evenodd" d="M104.108 9.00868C103.738 8.26771 102.837 7.96738 102.096 8.33786C101.355 8.70834 101.054 9.60935 101.425 10.3503C102.52 12.5415 103.009 15.1865 102.727 17.6404C102.22 22.0537 99.4128 24.5432 95.6953 25.5741C93.5499 26.169 91.1332 26.2589 88.7776 25.9138C89.3591 24.4409 89.572 22.8003 89.3787 20.9323C89.1514 18.7344 88.2039 16.431 86.7341 14.6007C85.2618 12.7673 83.1691 11.2975 80.618 11.0234C79.4265 10.8954 78.1831 10.9871 77.0928 11.5886C75.9596 12.2139 75.2058 13.27 74.7999 14.6375C73.9353 17.5497 74.9056 20.2558 76.4625 22.3599C78.0114 24.4531 80.2395 26.1059 82.3003 27.0802C82.8091 27.3208 83.3346 27.5418 83.8733 27.7423C83.3952 28.1893 82.8485 28.6337 82.2313 29.0854C81.9579 29.2855 81.5642 29.4901 81.0275 29.74C80.9101 29.7946 80.7837 29.8523 80.6517 29.9126C80.2365 30.1022 79.7657 30.3171 79.3463 30.5409C78.7943 30.8352 78.1491 31.2351 77.6628 31.8013C77.1289 32.4228 76.7855 33.2525 76.9292 34.2468C77.1037 35.4543 77.9549 36.4611 78.7384 37.2093C79.5742 38.0075 80.6315 38.7832 81.6527 39.4937C82.0692 39.7836 82.4727 40.058 82.8628 40.3233L82.8647 40.3246L82.8658 40.3254C83.4754 40.7399 84.0523 41.1323 84.5958 41.5268C85.5037 42.1859 86.0713 42.6814 86.3235 43.0269C87.89 45.1726 88.2861 47.0409 88.1256 49.769C87.9457 52.8278 86.504 54.9958 84.2521 56.5312C81.9425 58.1059 78.7498 59.0253 75.1811 59.3644C71.6308 59.7019 67.8269 59.4534 64.3988 58.7957C60.9507 58.1342 57.9953 57.0805 56.0895 55.8838C55.3879 55.4433 54.462 55.6549 54.0215 56.3565C53.581 57.0581 53.7926 57.9839 54.4942 58.4245C56.8291 59.8906 60.1805 61.0412 63.8335 61.742C67.5063 62.4466 71.5977 62.7185 75.465 62.351C79.3139 61.9852 83.0611 60.9742 85.9421 59.0099C88.8809 57.0062 90.8804 54.0264 91.1204 49.9452C91.3123 46.6832 90.8096 44.084 88.7465 41.258C88.1837 40.4871 87.2523 39.7481 86.3581 39.099C85.7873 38.6847 85.1327 38.2391 84.4873 37.7998C84.1038 37.5388 83.7236 37.28 83.3661 37.0312C82.3595 36.3308 81.4665 35.6663 80.8102 35.0397C80.1016 34.363 79.9189 33.9601 79.8983 33.8177L79.8974 33.8108C79.9007 33.8054 79.9056 33.798 79.9125 33.7886C79.9191 33.7796 79.9276 33.7687 79.9385 33.756C80.0548 33.6207 80.3003 33.432 80.7581 33.1879C81.0888 33.0115 81.4354 32.8532 81.8257 32.6748L81.828 32.6738C81.9763 32.6061 82.1309 32.5354 82.2934 32.4598C82.8348 32.2078 83.4687 31.8974 84.0032 31.5062C85.1807 30.6443 86.2493 29.7203 87.1221 28.6684C90.2344 29.3023 93.5388 29.2853 96.4969 28.465C101.149 27.1749 105.034 23.8425 105.707 17.983C106.058 14.9353 105.457 11.7065 104.108 9.00868ZM86.3947 21.2409C86.5632 22.8703 86.3266 24.1444 85.8027 25.234C85.0342 24.992 84.2897 24.7024 83.5826 24.3681C81.8956 23.5705 80.084 22.2105 78.8741 20.5754C77.6722 18.9511 77.1646 17.2133 77.6758 15.4913C77.9071 14.7123 78.2375 14.3834 78.5421 14.2154C78.8895 14.0237 79.4375 13.9138 80.2976 14.0062C81.8526 14.1733 83.2776 15.0877 84.3949 16.4791C85.5147 17.8735 86.2286 19.6355 86.3947 21.2409Z" />
</svg>
