<svg width="90" height="30" viewBox="0 0 90 30" fill="none" xmlns="http://www.w3.org/2000/svg">
<path d="M25.8028 16.4255C25.8028 10.9438 29.9345 6.96044 35.6339 6.96044C41.9754 6.96044 46.2134 11.8971 45.1094 17.9232H32.1076C32.4283 20.239 33.5682 21.3969 35.5272 21.3969C37.237 21.3969 38.3765 20.7159 38.9113 19.3882H45.002C43.8262 23.5761 40.4421 25.9253 35.6714 25.9253C29.7568 25.9241 25.8028 22.111 25.8028 16.4255ZM32.1787 14.2806H38.591C38.5195 12.442 37.3085 11.2512 35.4917 11.2512C33.6748 11.2512 32.6065 12.2384 32.1787 14.2806ZM3.1509 24.1561C1.9691 22.9532 1.345 21.1893 1.345 19.0554V13.0317C2.2673 13.8684 3.3816 14.465 4.5893 14.7686L4.8519 14.809C5.0865 14.8374 5.3227 14.8516 5.5591 14.8514C6.1889 14.8459 6.8153 14.7598 7.4232 14.5953V17.1226C7.4232 18.2879 7.6442 19.1794 8.0808 19.7719C8.3202 20.0806 8.6318 20.3258 8.9882 20.4857C9.3446 20.6457 9.7349 20.7156 10.1246 20.6892C10.9797 20.6892 12.9686 20.3217 12.9686 16.9182V11.4431C14.2124 10.3193 15.1431 8.89194 15.6697 7.30054H19.044V10.5254C19.8457 9.41744 20.9429 8.55744 22.2104 8.04374C23.5913 7.45624 25.0776 7.15675 26.5784 7.16355C27.4215 7.17065 28.2593 7.29724 29.0669 7.53964C28.565 7.87714 28.0935 8.25774 27.6576 8.67704C26.6455 9.65114 25.8456 10.8239 25.308 12.1217C25.1723 12.4476 25.0515 12.7837 24.9497 13.1198C24.4901 13.0907 24.0817 13.0765 23.7004 13.0765C20.3988 13.0765 19.0521 14.2572 19.0521 17.1525V25.5779H19.0468H13.4667L13.4647 23.3717C12.7601 24.1849 11.8861 24.8342 10.9039 25.2738C9.9218 25.7134 8.8554 25.9327 7.7795 25.9164C5.881 25.918 4.2819 25.3089 3.1509 24.1561ZM74.1756 25.9176H74.1198C72.9293 25.9183 71.7524 25.6639 70.6683 25.1716C69.6372 24.6938 68.7199 24.0014 67.9778 23.1406C66.4212 21.2591 65.5932 18.8806 65.6448 16.4392C65.6358 15.1743 65.8444 13.9173 66.2616 12.7231C66.6494 11.6133 67.2514 10.5904 68.0336 9.71274C68.8104 8.84744 69.7646 8.15974 70.8311 7.69634C71.9995 7.19714 73.2589 6.94644 74.5294 6.96004C75.5507 6.93074 76.5671 7.11154 77.5156 7.49114C78.4032 7.88504 79.2012 8.45584 79.8608 9.16864V7.29765H85.4426V18.1227H85.4454V19.8858C85.4635 20.2813 85.6334 20.6545 85.9196 20.9279C86.2058 21.2013 86.5865 21.3539 86.9824 21.3539C87.3784 21.3539 87.7584 21.2013 88.0454 20.9279C88.3314 20.6545 88.5014 20.2813 88.5194 19.8858V18.1243H89.9784V21.0802C89.9774 21.7209 89.8454 22.3546 89.5904 22.9424C89.3364 23.5302 88.9634 24.0598 88.4974 24.4986C87.5324 25.4163 86.2499 25.9243 84.9187 25.916C84.28 25.9178 83.6464 25.8026 83.0493 25.5759C82.7552 25.465 82.4723 25.3265 82.2043 25.1623L82.1958 25.1566L82.1918 25.1542L82.1821 25.1473H82.1793C82.1768 25.1471 82.1745 25.1463 82.1724 25.1449C81.3537 24.6436 80.6999 23.9134 80.2918 23.0445C80.0433 23.3341 79.8616 23.509 79.8616 23.509C79.1201 24.2651 78.241 24.8727 77.2716 25.2992C76.3072 25.7087 75.2702 25.9194 74.2224 25.9188L74.1756 25.9176ZM71.9706 16.4392C71.9706 19.3575 73.869 20.6864 75.6309 20.6864C77.453 20.6864 79.2912 19.3628 79.2912 16.4049C79.2912 13.2914 77.3201 12.2109 75.6325 12.2109V12.1924C73.8092 12.192 71.9706 13.5035 71.9706 16.4392ZM58.2348 25.5767V15.759C58.2348 13.4494 57.3818 12.1924 55.5334 12.1924C54.0389 12.1924 52.6894 13.2119 52.6894 15.9634V25.5767H46.6128V7.29894H52.193V9.50795C52.8989 8.69545 53.7734 8.04654 54.7557 7.60654C55.738 7.16654 56.8044 6.94604 57.8806 6.96044C61.6472 6.96044 64.3139 9.37224 64.3139 13.823V25.5771L58.2348 25.5767ZM5.0405 12.1398C3.0269 11.6794 1.0057 8.92104 0.464099 7.20074C-0.465001 4.17414 -0.1055 1.51834 2.5188 0.334045C4.3918 -0.453955 7.0334 0.0658445 7.3719 2.82384C7.3844 2.86824 7.3966 2.94984 7.4588 2.91114C9.3374 0.868845 11.7876 1.53774 12.8253 3.13894C14.0633 5.20294 13.0535 8.03484 10.5669 9.99304C9.4788 10.838 7.355 12.1831 5.5708 12.1831C5.3931 12.1837 5.2157 12.1693 5.0405 12.1398Z" fill="#5037D2"/>
</svg>
